 <svg version="1.0" xmlns="http://www.w3.org/2000/svg" width="700.000000pt" height="700.000000pt" viewBox="0 0 700.000000 700.000000" preserveAspectRatio="xMidYMid meet">
<metadata>
Created by potrace 1.12, written by Peter Selinger 2001-2015
</metadata>
<g transform="translate(0.000000,700.000000) scale(0.100000,-0.100000)" fill="#fff" stroke="none">
<path d="M2769 6103 c-11 -27 -26 -61 -34 -78 -7 -16 -50 -115 -95 -220 -45
-104 -88 -205 -96 -222 l-15 -33 -929 0 -930 0 0 -2050 0 -2050 2830 0 2830 0
0 2050 0 2050 -930 0 -929 0 -15 33 c-8 17 -51 118 -96 222 -45 105 -88 204
-95 220 -8 17 -23 51 -34 78 l-20 47 -711 0 -711 0 -20 -47z m3146 -2603 l0
-1635 -2415 0 -2415 0 -3 1625 c-1 894 0 1631 3 1638 3 10 492 12 2417 10
l2413 -3 0 -1635z"></path>
<path d="M1537 4850 c-96 -37 -149 -99 -177 -204 -11 -39 -11 -58 -1 -100 26
-104 76 -163 176 -207 92 -41 210 -13 286 68 59 61 73 98 74 183 0 127 -61
215 -182 260 -66 25 -114 25 -176 0z"></path>
<path d="M3330 4690 c-385 -62 -709 -291 -887 -626 -55 -103 -77 -161 -110
-284 -23 -85 -26 -115 -27 -285 -1 -169 2 -200 22 -275 65 -239 149 -393 303
-555 156 -162 336 -273 544 -333 81 -24 264 -52 333 -52 69 1 288 35 352 55
86 28 247 106 330 160 93 61 249 217 312 310 59 87 133 243 164 343 13 42 31
139 41 214 16 131 16 144 0 264 -43 306 -146 517 -356 724 -174 172 -325 257
-571 321 -95 24 -350 35 -450 19z m405 -430 c91 -28 203 -89 279 -150 152
-123 242 -277 280 -482 21 -111 20 -176 -4 -292 -53 -256 -215 -461 -454 -571
-85 -40 -239 -75 -326 -75 -59 0 -249 34 -278 50 -9 5 -42 20 -72 34 -188 85
-341 262 -421 486 -20 57 -23 84 -23 225 -1 141 2 169 23 235 41 133 104 235
205 336 103 103 194 159 321 198 111 35 114 35 265 31 105 -2 151 -7 205 -25z"></path>
</g>
</svg>