<?xml version="1.0" encoding="UTF-8"?>
<!-- Do not edit this file with editors other than draw.io -->
<!DOCTYPE svg PUBLIC "-//W3C//DTD SVG 1.1//EN" "http://www.w3.org/Graphics/SVG/1.1/DTD/svg11.dtd">
<svg xmlns="http://www.w3.org/2000/svg" xmlns:xlink="http://www.w3.org/1999/xlink" version="1.1" width="478px" height="80px" viewBox="-0.5 -0.5 478 80" content="&lt;mxfile host=&quot;app.diagrams.net&quot; modified=&quot;2024-02-28T17:55:11.135Z&quot; agent=&quot;Mozilla/5.0 (X11; Linux x86_64; rv:122.0) Gecko/20100101 Firefox/122.0&quot; version=&quot;23.1.2&quot; etag=&quot;lP_CXO5Ky_CMzIxQjSSF&quot; type=&quot;device&quot; scale=&quot;1&quot; border=&quot;0&quot;&gt;&#xA;  &lt;diagram name=&quot;Page-1&quot; id=&quot;WgFkerD8DQ2N5_E8rhx8&quot;&gt;&#xA;    &lt;mxGraphModel dx=&quot;548&quot; dy=&quot;263&quot; grid=&quot;1&quot; gridSize=&quot;10&quot; guides=&quot;1&quot; tooltips=&quot;1&quot; connect=&quot;1&quot; arrows=&quot;1&quot; fold=&quot;1&quot; page=&quot;1&quot; pageScale=&quot;1&quot; pageWidth=&quot;850&quot; pageHeight=&quot;1100&quot; background=&quot;#808080&quot; math=&quot;0&quot; shadow=&quot;0&quot;&gt;&#xA;      &lt;root&gt;&#xA;        &lt;mxCell id=&quot;0&quot; /&gt;&#xA;        &lt;mxCell id=&quot;1&quot; parent=&quot;0&quot; /&gt;&#xA;        &lt;mxCell id=&quot;2&quot; value=&quot;&quot; style=&quot;shape=mxgraph.signs.tech.crop;html=1;pointerEvents=1;fillColor=#FFFFFF;strokeColor=none;verticalLabelPosition=bottom;verticalAlign=top;align=center;&quot; vertex=&quot;1&quot; parent=&quot;1&quot;&gt;&#xA;          &lt;mxGeometry x=&quot;650&quot; y=&quot;297&quot; width=&quot;80&quot; height=&quot;80&quot; as=&quot;geometry&quot; /&gt;&#xA;        &lt;/mxCell&gt;&#xA;        &lt;mxCell id=&quot;3&quot; value=&quot;&quot; style=&quot;sketch=0;outlineConnect=0;fontColor=#232F3E;gradientColor=none;fillColor=#F7941D;strokeColor=none;dashed=0;verticalLabelPosition=bottom;verticalAlign=top;align=center;html=1;fontSize=12;fontStyle=0;aspect=fixed;pointerEvents=1;shape=mxgraph.aws4.user;container=0;&quot; vertex=&quot;1&quot; parent=&quot;1&quot;&gt;&#xA;          &lt;mxGeometry x=&quot;252&quot; y=&quot;298&quot; width=&quot;78&quot; height=&quot;78&quot; as=&quot;geometry&quot; /&gt;&#xA;        &lt;/mxCell&gt;&#xA;        &lt;mxCell id=&quot;4&quot; value=&quot;&quot; style=&quot;endArrow=classic;html=1;rounded=0;strokeWidth=4;strokeColor=#FFFFFF;&quot; edge=&quot;1&quot; parent=&quot;1&quot;&gt;&#xA;          &lt;mxGeometry width=&quot;50&quot; height=&quot;50&quot; relative=&quot;1&quot; as=&quot;geometry&quot;&gt;&#xA;            &lt;mxPoint x=&quot;335&quot; y=&quot;326.3333333333333&quot; as=&quot;sourcePoint&quot; /&gt;&#xA;            &lt;mxPoint x=&quot;425&quot; y=&quot;326.3333333333333&quot; as=&quot;targetPoint&quot; /&gt;&#xA;          &lt;/mxGeometry&gt;&#xA;        &lt;/mxCell&gt;&#xA;        &lt;mxCell id=&quot;5&quot; value=&quot;&quot; style=&quot;endArrow=classic;html=1;rounded=0;strokeWidth=4;startArrow=classic;startFill=1;strokeColor=#FFFFFF;&quot; edge=&quot;1&quot; parent=&quot;1&quot;&gt;&#xA;          &lt;mxGeometry width=&quot;50&quot; height=&quot;50&quot; relative=&quot;1&quot; as=&quot;geometry&quot;&gt;&#xA;            &lt;mxPoint x=&quot;550&quot; y=&quot;340&quot; as=&quot;sourcePoint&quot; /&gt;&#xA;            &lt;mxPoint x=&quot;650&quot; y=&quot;340&quot; as=&quot;targetPoint&quot; /&gt;&#xA;          &lt;/mxGeometry&gt;&#xA;        &lt;/mxCell&gt;&#xA;        &lt;mxCell id=&quot;6&quot; value=&quot;&quot; style=&quot;endArrow=none;html=1;rounded=0;strokeWidth=4;startArrow=classic;startFill=1;endFill=0;strokeColor=#FFFFFF;&quot; edge=&quot;1&quot; parent=&quot;1&quot;&gt;&#xA;          &lt;mxGeometry width=&quot;50&quot; height=&quot;50&quot; relative=&quot;1&quot; as=&quot;geometry&quot;&gt;&#xA;            &lt;mxPoint x=&quot;335&quot; y=&quot;356&quot; as=&quot;sourcePoint&quot; /&gt;&#xA;            &lt;mxPoint x=&quot;425&quot; y=&quot;356&quot; as=&quot;targetPoint&quot; /&gt;&#xA;          &lt;/mxGeometry&gt;&#xA;        &lt;/mxCell&gt;&#xA;        &lt;mxCell id=&quot;7&quot; value=&quot;&quot; style=&quot;html=1;verticalLabelPosition=bottom;align=center;labelBackgroundColor=#ffffff;verticalAlign=top;strokeWidth=5;strokeColor=none;shadow=0;dashed=0;shape=mxgraph.ios7.icons.cloud;fillColor=#f7941d;&quot; vertex=&quot;1&quot; parent=&quot;1&quot;&gt;&#xA;          &lt;mxGeometry x=&quot;430&quot; y=&quot;300&quot; width=&quot;120&quot; height=&quot;74&quot; as=&quot;geometry&quot; /&gt;&#xA;        &lt;/mxCell&gt;&#xA;        &lt;mxCell id=&quot;8&quot; value=&quot;&quot; style=&quot;sketch=0;outlineConnect=0;fontColor=#232F3E;gradientColor=none;fillColor=#FFFFFF;strokeColor=none;dashed=0;verticalLabelPosition=bottom;verticalAlign=top;align=center;html=1;fontSize=12;fontStyle=0;aspect=fixed;pointerEvents=1;shape=mxgraph.aws4.container_registry_image;&quot; vertex=&quot;1&quot; parent=&quot;1&quot;&gt;&#xA;          &lt;mxGeometry x=&quot;472.5&quot; y=&quot;331&quot; width=&quot;35&quot; height=&quot;35&quot; as=&quot;geometry&quot; /&gt;&#xA;        &lt;/mxCell&gt;&#xA;      &lt;/root&gt;&#xA;    &lt;/mxGraphModel&gt;&#xA;  &lt;/diagram&gt;&#xA;&lt;/mxfile&gt;&#xA;"><defs/><g><rect x="398" y="0" width="80" height="80" fill="none" stroke="none" pointer-events="all"/><path d="M 463.7 58.13 L 463.7 18.9 L 476.78 5.98 L 470.88 0 L 458.84 11.89 L 418.32 11.89 L 418.32 0.81 L 409.91 0.81 L 409.91 11.89 L 398 11.89 L 398 20.3 L 409.92 20.3 L 409.92 66.54 L 455.3 66.54 L 455.3 80 L 463.7 80 L 463.7 66.54 L 478 66.54 L 478 58.13 L 463.7 58.13 Z M 450.32 20.3 L 418.32 51.87 L 418.32 20.3 L 450.32 20.3 Z M 423.95 58.13 L 455.3 27.2 L 455.3 58.13 L 423.95 58.13 Z" fill="#ffffff" stroke="none" pointer-events="all"/><rect x="0" y="1" width="78" height="78" fill="none" stroke="none" pointer-events="all"/><path d="M 7.14 75.45 C 8.02 57.88 21.97 43.86 39 43.86 C 44.76 43.86 50.4 45.48 55.32 48.55 C 64.45 54.24 70.29 64.43 70.86 75.45 Z M 21.61 22.06 C 21.61 12.4 29.41 4.55 39 4.55 C 48.59 4.55 56.39 12.4 56.39 22.06 C 56.39 31.71 48.59 39.57 39 39.57 C 29.41 39.57 21.61 31.71 21.61 22.06 Z M 57.19 45.54 C 54.12 43.62 50.79 42.23 47.33 41.37 C 54.74 38.12 59.93 30.69 59.93 22.06 C 59.93 10.45 50.54 1 39 1 C 27.46 1 18.07 10.45 18.07 22.06 C 18.07 30.7 23.28 38.14 30.7 41.38 C 15.15 45.28 3.55 59.85 3.55 77.23 C 3.55 78.21 4.34 79 5.32 79 L 72.68 79 C 73.66 79 74.45 78.21 74.45 77.23 C 74.45 64.32 67.84 52.18 57.19 45.54 Z" fill="#f7941d" stroke="none" pointer-events="all"/><path d="M 83 29.33 L 161.03 29.33" fill="none" stroke="#ffffff" stroke-width="4" stroke-miterlimit="10" pointer-events="stroke"/><path d="M 168.53 29.33 L 158.53 34.33 L 161.03 29.33 L 158.53 24.33 Z" fill="#ffffff" stroke="#ffffff" stroke-width="4" stroke-miterlimit="10" pointer-events="all"/><path d="M 309.97 43 L 386.03 43" fill="none" stroke="#ffffff" stroke-width="4" stroke-miterlimit="10" pointer-events="stroke"/><path d="M 302.47 43 L 312.47 38 L 309.97 43 L 312.47 48 Z" fill="#ffffff" stroke="#ffffff" stroke-width="4" stroke-miterlimit="10" pointer-events="all"/><path d="M 393.53 43 L 383.53 48 L 386.03 43 L 383.53 38 Z" fill="#ffffff" stroke="#ffffff" stroke-width="4" stroke-miterlimit="10" pointer-events="all"/><path d="M 94.97 59 L 173 59" fill="none" stroke="#ffffff" stroke-width="4" stroke-miterlimit="10" pointer-events="stroke"/><path d="M 87.47 59 L 97.47 54 L 94.97 59 L 97.47 64 Z" fill="#ffffff" stroke="#ffffff" stroke-width="4" stroke-miterlimit="10" pointer-events="all"/><path d="M 282.6 77 C 291.59 75.74 298.01 66.17 296.93 55.64 C 295.85 45.11 287.69 37.6 278.69 38.86 C 278.59 23.13 269.17 9.59 256.03 6.3 C 242.89 3 229.56 10.83 223.97 25.13 C 219.82 19.58 213.23 17.48 207.25 19.82 C 201.28 22.15 197.08 28.46 196.61 35.81 C 186.89 35.39 178.72 44.27 178.36 55.64 C 178.01 67.02 185.59 76.58 195.3 77 Z" fill="#f7941d" stroke="none" pointer-events="all"/><rect x="220.5" y="34" width="35" height="35" fill="none" stroke="none" pointer-events="all"/><path d="M 234.82 44.34 C 236.13 44.34 237.2 45.41 237.2 46.73 C 237.2 48.04 236.13 49.11 234.82 49.11 C 233.5 49.11 232.43 48.04 232.43 46.73 C 232.43 45.41 233.5 44.34 234.82 44.34 Z M 234.82 50.7 C 237.01 50.7 238.8 48.92 238.8 46.73 C 238.8 44.53 237.01 42.75 234.82 42.75 C 232.63 42.75 230.84 44.53 230.84 46.73 C 230.84 48.92 232.63 50.7 234.82 50.7 Z M 222.09 67.41 L 222.09 59.78 L 228.45 53.42 L 240.62 65.59 L 241.74 64.46 L 235.55 58.26 L 244.36 49.44 L 253.91 58.99 L 253.91 67.41 Z M 253.91 35.59 L 253.91 56.74 L 244.93 47.76 C 244.62 47.44 244.11 47.44 243.8 47.76 L 234.42 57.14 L 229.02 51.73 C 228.71 51.42 228.2 51.42 227.89 51.73 L 222.09 57.53 L 222.09 35.59 Z M 254.7 34 L 221.3 34 C 220.86 34 220.5 34.36 220.5 34.8 L 220.5 68.2 C 220.5 68.64 220.86 69 221.3 69 L 254.7 69 C 255.14 69 255.5 68.64 255.5 68.2 L 255.5 34.8 C 255.5 34.36 255.14 34 254.7 34 Z" fill="#ffffff" stroke="none" pointer-events="all"/></g></svg>