<?xml version="1.0" encoding="UTF-8" standalone="no"?>
<!-- Created with Inkscape (http://www.inkscape.org/) -->

<svg
   width="169.33336mm"
   height="118.53333mm"
   viewBox="0 0 169.33336 118.53333"
   version="1.1"
   id="svg5"
   inkscape:version="1.1.1 (3bf5ae0d25, 2021-09-20)"
   sodipodi:docname="spotify.svg"
   xmlns:inkscape="http://www.inkscape.org/namespaces/inkscape"
   xmlns:sodipodi="http://sodipodi.sourceforge.net/DTD/sodipodi-0.dtd"
   xmlns="http://www.w3.org/2000/svg"
   xmlns:svg="http://www.w3.org/2000/svg">
  <sodipodi:namedview
     id="namedview7"
     pagecolor="#505050"
     bordercolor="#ffffff"
     borderopacity="1"
     inkscape:pageshadow="0"
     inkscape:pageopacity="0"
     inkscape:pagecheckerboard="1"
     inkscape:document-units="px"
     showgrid="false"
     inkscape:snap-object-midpoints="false"
     fit-margin-top="0"
     fit-margin-left="0"
     fit-margin-right="0"
     fit-margin-bottom="0"
     inkscape:zoom="0.64052329"
     inkscape:cx="103.82136"
     inkscape:cy="230.28046"
     inkscape:window-width="1284"
     inkscape:window-height="1011"
     inkscape:window-x="1213"
     inkscape:window-y="211"
     inkscape:window-maximized="0"
     inkscape:current-layer="g9901" />
  <defs
     id="defs2" />
  <g
     inkscape:label="Layer 1"
     inkscape:groupmode="layer"
     id="layer1"
     style="display:inline"
     transform="translate(-20.33332,-87.787588)">
    <g
       id="g9901"
       style="display:inline">
      <path
         d="m 162.57335,139.2755 c 1.08479,-2.83104 1.69333,-5.92666 1.69333,-9.15458 0,-14.02292 -11.37708,-25.4 -25.4,-25.4 -5.21229,0 -10.08062,1.5875 -14.10229,4.28625 -7.32896,-12.700002 -21.00792,-21.219582 -36.697719,-21.219582 -23.38916,0 -42.333332,18.944162 -42.333332,42.333332 0,0.71438 0.0265,1.42875 0.0529,2.14313 -14.81667,5.21229 -25.452919,19.34102 -25.452919,35.95686 0,21.03437 17.065629,38.1 38.100002,38.1 h 97.366698 c 18.70604,0 33.86666,-15.16063 33.86666,-33.86667 0,-16.37771 -11.64166,-30.05665 -27.09333,-33.17874 z"
         id="path824"
         style="fill:#ececec;fill-opacity:1;stroke-width:0.264583" />
      <path
         d="m 105.00001,131.28993 c -14.787271,0 -26.787741,12.00047 -26.787741,26.78773 0,14.78727 12.00047,26.78774 26.787741,26.78774 14.78726,0 26.78772,-12.00047 26.78772,-26.78774 0,-14.78726 -12.00046,-26.78773 -26.78772,-26.78773 z m 10.87711,39.4147 c -0.45366,0 -0.7345,-0.14042 -1.15576,-0.38886 -6.74014,-4.06137 -14.58203,-4.23419 -22.32671,-2.64637 -0.421261,0.10802 -0.972139,0.28084 -1.285381,0.28084 -1.047749,0 -1.706639,-0.83172 -1.706639,-1.70664 0,-1.11255 0.65889,-1.64183 1.468999,-1.81465 8.84644,-1.95507 17.887301,-1.78225 25.599581,2.83 0.65889,0.42125 1.04775,0.7993 1.04775,1.78224 0,0.98294 -0.76692,1.66344 -1.64184,1.66344 z m 2.90561,-7.08579 c -0.56168,0 -0.93973,-0.24844 -1.32859,-0.45367 -6.75095,-3.99655 -16.81794,-5.60598 -25.772391,-3.17564 -0.51848,0.14042 -0.79931,0.28084 -1.28538,0.28084 -1.15576,0 -2.0955,-0.93973 -2.0955,-2.09549 0,-1.15576 0.56168,-1.92267 1.67424,-2.23592 3.00282,-0.84251 6.07045,-1.469 10.563861,-1.469 7.01018,0 13.78273,1.73904 19.11867,4.91468 0.87492,0.51848 1.22057,1.18817 1.22057,2.1279 -0.0108,1.16656 -0.91813,2.1063 -2.09548,2.1063 z m 3.34847,-8.23075 c -0.56168,0 -0.90733,-0.14042 -1.3934,-0.42126 -7.69067,-4.59064 -21.440991,-5.6924 -30.34143,-3.20805 -0.38886,0.10802 -0.87492,0.28084 -1.3934,0.28084 -1.4258,0 -2.51675,-1.11255 -2.51675,-2.54915 0,-1.46901 0.90733,-2.30073 1.87946,-2.58156 3.802139,-1.11256 8.057929,-1.64183 12.69177,-1.64183 7.8851,0 16.14825,1.64183 22.18629,5.16311 0.84252,0.48607 1.3934,1.15577 1.3934,2.44115 0,1.469 -1.18817,2.51675 -2.50594,2.51675 z"
         id="path9795"
         style="display:inline;fill:#1ed760;fill-opacity:1;stroke-width:0.108015" />
    </g>
  </g>
</svg>
