 <svg version="1.0" xmlns="http://www.w3.org/2000/svg" width="700.000000pt" height="700.000000pt" viewBox="0 0 700.000000 700.000000" preserveAspectRatio="xMidYMid meet">
<metadata>
Created by potrace 1.12, written by Peter Selinger 2001-2015
</metadata>
<g transform="translate(0.000000,700.000000) scale(0.100000,-0.100000)" fill="#fff" stroke="none">
<path d="M1727 6078 c-17 -14 -227 -363 -227 -379 0 -5 797 -9 2000 -9 1203 0
2000 4 2000 9 0 16 -210 365 -227 379 -13 9 -384 12 -1773 12 -1389 0 -1760
-3 -1773 -12z"></path>
<path d="M1699 5536 c-3 -3 1 -80 7 -173 7 -92 22 -305 33 -473 12 -168 26
-359 31 -425 5 -66 14 -190 20 -275 6 -85 17 -247 25 -360 8 -113 33 -461 55
-775 22 -313 47 -662 55 -775 8 -113 17 -241 20 -285 3 -44 12 -170 20 -280 8
-110 24 -333 35 -495 11 -162 23 -301 25 -308 6 -18 2944 -18 2950 1 2 6 13
143 25 302 11 160 27 382 35 495 8 113 20 273 25 355 6 83 24 339 40 570 17
231 39 548 50 705 11 157 27 377 35 490 8 113 19 273 25 355 6 83 14 206 20
275 5 69 19 262 30 430 12 168 27 381 34 473 6 93 10 170 7 173 -6 5 -3596 5
-3602 0z"></path>
</g>
</svg>