 <svg version="1.0" xmlns="http://www.w3.org/2000/svg" width="700.000000pt" height="700.000000pt" viewBox="0 0 700.000000 700.000000" preserveAspectRatio="xMidYMid meet">
<metadata>
Created by potrace 1.12, written by Peter Selinger 2001-2015
</metadata>
<g transform="translate(0.000000,700.000000) scale(0.100000,-0.100000)" fill="#fff" stroke="none">
<path d="M1773 4958 l-1723 -1722 0 -1451 c0 -799 3 -1455 7 -1459 4 -4 780
766 1724 1710 944 944 1721 1715 1726 1713 6 -2 783 -774 1727 -1715 944 -940
1719 -1708 1721 -1705 3 2 5 657 5 1455 l0 1451 -1723 1723 c-947 947 -1726
1722 -1731 1722 -5 0 -785 -775 -1733 -1722z"></path>
</g>
</svg>