 <svg version="1.0" xmlns="http://www.w3.org/2000/svg" width="700.000000pt" height="700.000000pt" viewBox="0 0 700.000000 700.000000" preserveAspectRatio="xMidYMid meet">
<metadata>
Created by potrace 1.12, written by Peter Selinger 2001-2015
</metadata>
<g transform="translate(0.000000,700.000000) scale(0.100000,-0.100000)" fill="#fff" stroke="none">
<path d="M565 6891 c-94 -24 -207 -78 -281 -134 -216 -164 -330 -477 -268
-735 9 -37 237 -619 507 -1294 l490 -1227 -490 -1228 c-316 -789 -497 -1256
-508 -1307 -66 -302 95 -643 375 -790 114 -60 206 -81 355 -80 115 0 139 3
209 27 68 24 294 131 1121 532 541 263 1146 555 1270 615 77 37 502 243 945
457 443 215 1141 553 1552 752 822 398 802 388 887 454 162 125 271 356 271
572 0 243 -145 499 -353 621 -34 20 -546 270 -1137 556 -591 287 -1284 622
-1540 746 -256 123 -537 259 -625 302 -88 42 -645 312 -1238 599 -594 287
-1113 534 -1155 548 -102 35 -280 41 -387 14z m242 -485 c43 -15 58 -23 2918
-1406 1106 -535 2069 -1001 2140 -1035 72 -35 200 -97 285 -139 l155 -75
-2431 0 -2431 -1 -472 1181 c-338 843 -474 1195 -478 1233 -4 43 -1 62 21 109
56 118 179 173 293 133z m5368 -3220 c-71 -35 -1309 -634 -2750 -1332 l-2620
-1268 -70 -1 c-59 0 -78 4 -116 27 -26 15 -58 41 -72 57 -35 42 -60 124 -55
175 3 23 218 574 478 1224 l472 1182 2432 0 2431 -1 -130 -63z"></path>
</g>
</svg>