<?xml version="1.0" encoding="UTF-8" standalone="no"?>
<!-- Generator: Adobe Illustrator 19.0.0, SVG Export Plug-In . SVG Version: 6.00 Build 0)  -->

<svg
   version="1.1"
   id="Layer_1"
   x="0px"
   y="0px"
   viewBox="0 0 502 502"
   style="enable-background:new 0 0 502 502;"
   xml:space="preserve"
   width="512"
   height="512"
   sodipodi:docname="noc_cup.svg"
   inkscape:version="1.1.1 (3bf5ae0d25, 2021-09-20)"
   xmlns:inkscape="http://www.inkscape.org/namespaces/inkscape"
   xmlns:sodipodi="http://sodipodi.sourceforge.net/DTD/sodipodi-0.dtd"
   xmlns="http://www.w3.org/2000/svg"
   xmlns:svg="http://www.w3.org/2000/svg"><defs
   id="defs921" /><sodipodi:namedview
   id="namedview919"
   pagecolor="#505050"
   bordercolor="#ffffff"
   borderopacity="1"
   inkscape:pageshadow="0"
   inkscape:pageopacity="0"
   inkscape:pagecheckerboard="1"
   showgrid="false"
   inkscape:zoom="1.4042969"
   inkscape:cx="256"
   inkscape:cy="256"
   inkscape:window-width="2560"
   inkscape:window-height="1377"
   inkscape:window-x="1912"
   inkscape:window-y="-8"
   inkscape:window-maximized="1"
   inkscape:current-layer="Layer_1" />
<g
   id="g916"
   transform="matrix(0.65979509,0,0,0.65979509,85.391429,85.391429)">
	<g
   id="g898">
		<ellipse
   style="fill:#e6e6e6"
   cx="251"
   cy="428.004"
   rx="241"
   ry="57.216"
   id="ellipse894" />
		<path
   style="fill:#e6e6e6"
   d="m 403.175,214.766 c -0.002,-0.007 -0.003,-0.014 -0.004,-0.021 H 98.83 c -2.531,11.153 -3.873,22.757 -3.873,34.677 0,132.415 69.863,178.582 156.043,178.582 58.086,0 108.754,-20.979 135.62,-75.197 5.057,1.167 10.315,1.804 15.722,1.804 38.561,0 69.933,-31.372 69.933,-69.933 0.001,-38.282 -30.923,-69.463 -69.1,-69.912 z m -0.832,107.568 c -1.401,0 -2.782,-0.083 -4.143,-0.233 5.721,-20.641 8.844,-44.732 8.844,-72.68 0,-0.702 -0.02,-1.4 -0.03,-2.1 18.566,2.309 32.985,18.176 32.985,37.356 0,20.764 -16.893,37.657 -37.656,37.657 z"
   id="path896" />
	</g>
	<g
   id="g914">
		<path
   d="m 462.552,389.736 c -18.798,-7.578 -44.377,-14.057 -74.574,-18.938 1.407,-2.238 2.78,-4.514 4.086,-6.86 3.421,0.447 6.857,0.673 10.279,0.673 44.075,0 79.933,-35.857 79.933,-79.933 0,-43.324 -35.062,-79.025 -78.303,-79.9 -0.266,-0.021 -0.533,-0.032 -0.803,-0.032 H 98.83 c -4.67,0 -8.719,3.232 -9.752,7.787 -2.734,12.053 -4.121,24.464 -4.121,36.889 0,49.992 9.756,90.654 29.041,121.379 C 83.699,375.7 58.052,382.211 39.242,389.822 13.203,400.355 0,413.202 0,428.004 c 0,20.971 26.336,37.856 78.277,50.188 46.253,10.98 107.594,17.028 172.723,17.028 65.129,0 126.47,-6.048 172.723,-17.028 C 475.664,465.86 502,448.975 502,428.004 c 0,-14.84 -13.272,-27.715 -39.448,-38.268 z M 107.038,224.745 h 295.495 c 0.174,0.011 0.349,0.018 0.523,0.02 32.653,0.386 59.219,27.262 59.219,59.913 0,33.047 -26.886,59.933 -59.933,59.933 -4.49,0 -9.023,-0.521 -13.475,-1.548 -4.508,-1.038 -9.151,1.153 -11.208,5.305 -22.896,46.207 -65.511,69.637 -126.66,69.637 -66.624,0 -146.043,-29.247 -146.043,-168.583 10e-4,-8.279 0.699,-16.548 2.082,-24.677 z M 419.103,458.732 C 374.318,469.364 314.618,475.22 251,475.22 187.382,475.22 127.682,469.365 82.897,458.733 33.146,446.921 20,433.468 20,428.004 c 0,-4.07 7.004,-11.657 26.743,-19.645 19.513,-7.894 47.395,-14.578 80.771,-19.39 1.965,2.233 3.995,4.398 6.095,6.487 28.377,28.232 67.873,42.547 117.392,42.547 53.083,0 95.076,-16.818 123.459,-49.039 33.281,4.797 61.098,11.453 80.615,19.321 19.873,8.013 26.925,15.63 26.925,19.719 0,5.464 -13.146,18.917 -62.897,30.728 z"
   id="path900" />
		<path
   d="m 397.108,332.042 c 1.766,0.193 3.527,0.292 5.234,0.292 26.277,0 47.656,-21.379 47.656,-47.656 0,-23.993 -17.949,-44.319 -41.751,-47.28 -2.874,-0.353 -5.754,0.547 -7.907,2.476 -2.153,1.929 -3.366,4.696 -3.326,7.588 0,0 0.029,1.563 0.029,1.96 0,26.153 -2.854,49.707 -8.481,70.01 -0.783,2.825 -0.287,5.853 1.358,8.28 1.645,2.427 4.273,4.01 7.188,4.33 z m 19.749,-70.896 c 7.934,4.905 13.142,13.687 13.142,23.532 0,12.154 -7.882,22.502 -18.802,26.203 3.193,-15.289 5.087,-31.932 5.66,-49.735 z"
   id="path902" />
		<path
   d="m 193.618,387.881 c 1.39,0.663 2.855,0.977 4.3,0.977 3.733,0 7.316,-2.101 9.032,-5.695 2.378,-4.984 0.266,-10.953 -4.719,-13.332 -22.309,-10.646 -38.458,-28.897 -47.998,-54.249 -1.945,-5.169 -7.71,-7.782 -12.882,-5.837 -5.169,1.945 -7.782,7.713 -5.837,12.882 11.424,30.352 30.972,52.307 58.104,65.254 z"
   id="path904" />
		<path
   d="m 137.068,291.369 c 5.475,-0.727 9.324,-5.753 8.598,-11.229 -0.699,-5.272 -1.22,-10.818 -1.546,-16.483 -0.317,-5.514 -5.038,-9.722 -10.559,-9.408 -5.514,0.317 -9.726,5.045 -9.408,10.559 0.354,6.157 0.922,12.201 1.687,17.964 0.667,5.028 4.962,8.686 9.9,8.686 0.439,-0.001 0.882,-0.029 1.328,-0.089 z"
   id="path906" />
		<path
   d="m 201.688,111.142 c -5.522,0 -10,4.478 -10,10 0,32.507 26.446,58.953 58.953,58.953 5.522,0 10,-4.478 10,-10 0,-5.522 -4.478,-10 -10,-10 -21.479,0 -38.953,-17.475 -38.953,-38.953 0,-5.523 -4.477,-10 -10,-10 z"
   id="path908" />
		<path
   d="m 270.008,75.195 c 21.479,0 38.953,17.475 38.953,38.953 0,5.522 4.478,10 10,10 5.522,0 10,-4.478 10,-10 0,-32.507 -26.446,-58.953 -58.953,-58.953 -5.522,0 -10,4.478 -10,10 0,5.522 4.477,10 10,10 z"
   id="path910" />
		<path
   d="m 152.735,26.78 c 21.479,0 38.953,17.475 38.953,38.953 0,5.522 4.478,10 10,10 5.522,0 10,-4.478 10,-10 0,-32.507 -26.446,-58.953 -58.953,-58.953 -5.522,0 -10,4.478 -10,10 0,5.522 4.478,10 10,10 z"
   id="path912" />
	</g>
</g>















</svg>
